<svg preserveAspectRatio="none" width="100%" height="100%" overflow="visible" style="display: block;" viewBox="0 0 32.1213 20" fill="none" xmlns="http://www.w3.org/2000/svg">
<path id="Vector 67" d="M22.0607 0.43934C21.4749 -0.146447 20.5251 -0.146447 19.9393 0.43934C19.3536 1.02513 19.3536 1.97487 19.9393 2.56066L21 1.5L22.0607 0.43934ZM30 10.5L31.0607 11.5607L32.1213 10.5L31.0607 9.43934L30 10.5ZM20.9393 17.4393C20.3536 18.0251 20.3536 18.9749 20.9393 19.5607C21.5251 20.1464 22.4749 20.1464 23.0607 19.5607L22 18.5L20.9393 17.4393ZM0 10.5V12H29V10.5V9H0V10.5ZM21 1.5L19.9393 2.56066L28.9393 11.5607L30 10.5L31.0607 9.43934L22.0607 0.43934L21 1.5ZM30 10.5L28.9393 9.43934L20.9393 17.4393L22 18.5L23.0607 19.5607L31.0607 11.5607L30 10.5Z" fill="var(--stroke-0, #FF4E3A)"/>
</svg>
