<svg preserveAspectRatio="none" width="100%" height="100%" overflow="visible" style="display: block;" viewBox="0 0 199 33.1414" fill="none" xmlns="http://www.w3.org/2000/svg">
<g id="VCAI Logo">
<path id="Vector" d="M49.1212 7.82677H51.8899L56.5261 20.0204C56.9515 21.104 57.3192 22.1875 57.7158 23.6106C58.1628 22.1081 58.6098 20.8367 58.9271 19.9915L63.5344 7.81955H66.2238L59.0569 26.9046H56.3674L49.1212 7.81955V7.82677ZM72.0641 13.6635C75.9143 13.6635 78.7552 16.4591 78.7552 20.4466C78.7552 24.4341 75.9071 27.2297 72.0641 27.2297C68.221 27.2297 65.3442 24.4341 65.3442 20.4466C65.3442 16.4591 68.1922 13.6635 72.0641 13.6635ZM72.0641 25.012C74.5444 25.012 76.2821 23.1338 76.2821 20.4466C76.2821 17.7594 74.5444 15.8812 72.0641 15.8812C69.5838 15.8812 67.8461 17.7594 67.8461 20.4466C67.8461 23.1338 69.5621 25.012 72.0641 25.012ZM81.0769 9.30764C81.0769 8.383 81.8123 7.66785 82.7136 7.66785C83.6149 7.66785 84.3503 8.383 84.3503 9.30764C84.3503 10.2323 83.6149 10.9474 82.7136 10.9474C81.8123 10.9474 81.0769 10.2106 81.0769 9.30764ZM81.5023 14.0031H83.9826V26.9118H81.5023V14.0031ZM93.0386 13.6346C96.2832 13.6346 98.5472 15.4839 98.9943 18.359H96.5139C96.0885 16.7192 94.7763 15.8523 93.1179 15.8523C90.7746 15.8523 89.1667 17.651 89.1667 20.4466C89.1667 23.2422 90.6665 25.012 93.017 25.012C94.7835 25.012 96.103 24.0874 96.55 22.5559H99.0303C98.5256 25.3515 96.1318 27.2297 93.0242 27.2297C89.2316 27.2297 86.7297 24.5352 86.7297 20.4755C86.7297 16.4158 89.2893 13.6419 93.053 13.6419L93.0386 13.6346ZM100.782 20.4755C100.782 16.4374 103.342 13.6419 107.077 13.6419C110.812 13.6419 113.133 16.1774 113.133 19.9987V20.9234L103.176 20.9523C103.364 23.6756 104.784 25.1782 107.236 25.1782C109.161 25.1782 110.422 24.3835 110.848 22.9099H113.17C112.535 25.6838 110.379 27.2369 107.192 27.2369C103.4 27.2369 100.79 24.4919 100.79 20.4827L100.782 20.4755ZM103.234 19.2836H110.66C110.66 17.1454 109.262 15.7223 107.077 15.7223C104.892 15.7223 103.544 17.0153 103.227 19.2836H103.234ZM115.751 18.8863C115.751 12.5294 119.889 7.85566 125.499 7.85566C129.32 7.85566 132.269 10.3623 132.529 13.7936H131.318C130.95 10.9402 128.599 8.98979 125.499 8.98979C120.546 8.98979 116.962 13.1579 116.962 18.8863C116.962 23.2422 119.442 26.0378 123.336 26.0378C126.523 26.0378 128.765 24.5858 130.186 21.5518H131.534C129.955 25.301 127.186 27.2008 123.314 27.2008C118.786 27.2008 115.758 23.8707 115.758 18.8863H115.751ZM133.272 23.9068C133.272 21.4001 135.247 19.7604 138.593 19.5003L142.89 19.1608L142.969 18.7635C143.445 16.358 142.313 15.0144 139.833 15.0144C137.511 15.0144 136.17 16.0185 135.831 17.9978H134.642C135.038 15.4334 136.985 13.9308 139.855 13.9308C142.941 13.9308 144.621 15.7006 144.173 18.4962L142.854 26.9118H141.881L142.068 24.5352C140.987 26.2256 139.061 27.2297 136.934 27.2297C134.807 27.2297 133.272 25.9077 133.272 23.8996V23.9068ZM142.645 20.8439L142.753 20.1577L138.513 20.4972C135.932 20.7067 134.432 21.978 134.432 23.8996C134.432 25.2721 135.514 26.1678 137.201 26.1678C140.049 26.1678 142.155 24.109 142.652 20.8367L142.645 20.8439ZM154.426 15.0649H153.504C151.29 15.0649 149.444 16.7842 149.076 19.1536L147.836 26.9118H146.704L148.709 14.2414H149.682L149.473 16.488C150.108 14.9566 151.658 13.9236 153.424 13.9236C153.821 13.9236 154.217 13.9742 154.585 14.0536L154.426 15.0577V15.0649ZM154.506 21.6096C154.506 17.2826 157.404 13.9308 161.146 13.9308C164.492 13.9308 166.518 16.4952 165.992 19.7604L165.862 20.5766H155.717C155.688 20.9162 155.667 21.2629 155.667 21.6096C155.667 24.333 157.325 26.175 159.748 26.175C161.781 26.175 163.569 25.0915 164.225 23.3H165.415C164.571 25.7849 162.358 27.2297 159.748 27.2297C156.69 27.2297 154.506 24.882 154.506 21.6096ZM155.905 19.6303H164.831C165.278 16.8347 163.699 14.9855 161.139 14.9855C158.58 14.9855 156.582 16.9142 155.897 19.6303H155.905ZM176.663 26.9118L186.411 8.17351H188.206L192.107 26.9118H190.917L189.807 21.6313H180.693L177.925 26.9118H176.663ZM181.248 20.5261H189.569L187.305 9.3871C187.255 9.14872 187.226 9.06925 187.226 8.93922C187.175 9.04758 187.118 9.17761 187.017 9.3871L181.248 20.5261ZM196.051 26.9118H194.861L197.81 8.17351H199L196.051 26.9118Z" fill="url(#paint0_linear_0_32)"/>
<g id="Group">
<path id="Vector_2" d="M17.7561 13.5551C15.2974 17.7376 8.59912 19.2763 5.19589 15.2816C2.85257 12.5221 2.40554 7.60276 5.01564 4.90831C3.46544 8.14454 4.48929 13.0278 7.3878 15.0721C10.5603 17.1886 14.9081 15.9389 17.7561 13.5623V13.5551Z" fill="url(#paint1_linear_0_32)"/>
<path id="Vector_3" d="M36.2376 17.9327C39.1794 13.7212 39.3453 5.80404 33.3319 4.54712C29.8061 3.64415 27.2105 6.25913 24.9464 8.61406C26.6264 5.21169 29.4961 2.21385 33.6203 3.00846C40.8594 4.21482 41.1334 13.8802 36.2376 17.9327Z" fill="url(#paint2_linear_0_32)"/>
<path id="Vector_4" d="M35.191 16.6252C36.4528 14.3208 36.6908 10.0082 34.4844 8.26732C32.0185 6.15077 28.6658 6.96705 26.4955 9.22808C27.8799 6.56975 31.3336 5.21891 34.1023 6.707C35.6813 7.48716 36.835 9.09805 36.9359 10.8751C37.1306 12.8977 36.6403 15.1443 35.1982 16.6252H35.191Z" fill="url(#paint3_linear_0_32)"/>
<path id="Vector_5" d="M15.2478 2.45945C12.1619 0.155078 7.19401 0.776314 4.37481 3.18904C2.56505 4.83605 1.80077 7.55216 1.80798 9.93599C1.88729 13.0422 3.67542 15.9606 6.2711 17.6293C8.93167 19.2329 12.5007 19.5508 15.3127 18.0049C20.3382 15.2165 21.6217 9.53147 24.4841 4.98775C25.5945 3.18904 27.1158 1.57815 29.0914 0.740196C32.5091 -0.870694 36.5324 0.32122 39.3155 2.64726C41.6012 4.61211 42.6467 7.68219 42.5601 10.6439C42.178 16.8708 33.6844 27.5546 28.4425 30.827C24.5562 33.3842 20.4608 33.9765 16.2284 31.8239C12.5224 29.9385 9.5878 26.7239 7.55452 23.1771C9.18403 25.3225 11.102 27.2513 13.2794 28.826C16.3654 31.0726 20.3959 32.5607 24.138 31.2243C27.8513 29.8518 30.8363 27.179 33.4104 24.1812C35.9772 21.1328 38.3638 17.8676 39.8996 14.198C40.9883 11.7997 41.2262 9.43033 40.2384 6.93092C38.8252 2.87119 33.4608 0.566827 29.4952 1.80208C26.3227 2.84952 24.3183 5.91238 22.7537 8.70796C21.7875 10.5067 20.9944 12.4065 19.9345 14.1474C18.8241 15.91 17.4902 17.5064 15.7525 18.7273C13.3732 20.3815 10.2079 20.7138 7.44637 19.9192C4.60554 19.0957 2.2478 16.9286 0.971592 14.263C-0.686759 10.9112 -0.124362 6.78645 1.91613 3.73082C4.6488 -0.292797 11.8807 -1.09463 15.2334 2.45221L15.2478 2.45945Z" fill="url(#paint4_linear_0_32)"/>
<path id="Vector_6" d="M16.3497 12.8183C13.0402 16.2279 6.46448 15.0793 5.80835 9.92154C5.60647 8.43345 5.87325 6.95259 6.48612 5.66676C6.31307 7.07539 6.31307 8.46957 6.63753 9.75539C7.6758 14.1041 12.8744 14.7253 16.3497 12.811V12.8183Z" fill="url(#paint5_linear_0_32)"/>
<path id="Vector_7" d="M12.4 25.5682C16.0988 27.9881 21.0162 29.3245 25.227 27.6992C26.5969 27.1574 27.8227 26.2472 28.9763 25.1131C28.3995 26.6229 27.2747 27.9809 25.8038 28.8478C21.5065 31.3833 15.0894 29.6785 12.4 25.561V25.5682Z" fill="url(#paint6_linear_0_32)"/>
<path id="Vector_8" d="M15.2033 24.2678C17.9072 26.4133 23.7258 26.7383 26.3359 24.2823C24.555 28.1831 17.1501 27.8652 15.2033 24.2678Z" fill="url(#paint7_linear_0_32)"/>
</g>
</g>
<defs>
<linearGradient id="paint0_linear_0_32" x1="49.1212" y1="17.4488" x2="199" y2="17.4488" gradientUnits="userSpaceOnUse">
<stop stop-color="#02007F"/>
<stop offset="1" stop-color="#FF4E3A"/>
</linearGradient>
<linearGradient id="paint1_linear_0_32" x1="4.59745" y1="16.1918" x2="26.088" y2="-5.25137" gradientUnits="userSpaceOnUse">
<stop stop-color="#02007F"/>
<stop offset="1" stop-color="#FF4E3A"/>
</linearGradient>
<linearGradient id="paint2_linear_0_32" x1="15.8832" y1="27.5041" x2="37.3665" y2="6.05373" gradientUnits="userSpaceOnUse">
<stop stop-color="#02007F"/>
<stop offset="1" stop-color="#FF4E3A"/>
</linearGradient>
<linearGradient id="paint3_linear_0_32" x1="15.9974" y1="27.6197" x2="37.488" y2="6.16932" gradientUnits="userSpaceOnUse">
<stop stop-color="#02007F"/>
<stop offset="1" stop-color="#FF4E3A"/>
</linearGradient>
<linearGradient id="paint4_linear_0_32" x1="10.5756" y1="22.1874" x2="32.0661" y2="0.737059" gradientUnits="userSpaceOnUse">
<stop stop-color="#02007F"/>
<stop offset="1" stop-color="#FF4E3A"/>
</linearGradient>
<linearGradient id="paint5_linear_0_32" x1="4.53936" y1="16.1412" x2="26.0227" y2="-5.30921" gradientUnits="userSpaceOnUse">
<stop stop-color="#02007F"/>
<stop offset="1" stop-color="#FF4E3A"/>
</linearGradient>
<linearGradient id="paint6_linear_0_32" x1="17.4255" y1="29.05" x2="38.916" y2="7.60689" gradientUnits="userSpaceOnUse">
<stop stop-color="#02007F"/>
<stop offset="1" stop-color="#FF4E3A"/>
</linearGradient>
<linearGradient id="paint7_linear_0_32" x1="16.804" y1="28.4287" x2="38.2873" y2="6.9783" gradientUnits="userSpaceOnUse">
<stop stop-color="#02007F"/>
<stop offset="1" stop-color="#FF4E3A"/>
</linearGradient>
</defs>
</svg>
